{
  "accessors": [
    {
      "bufferView": 2,
      "componentType": 5126,
      "count": 65532,
      "max": [
        0.2636060118675232,
        0.19527800381183624,
        0.5338810086250305
      ],
      "min": [
        -0.0811920017004013,
        -0.2519890069961548,
        -0.20475199818611145
      ],
      "type": "VEC3"
    },
    {
      "bufferView": 2,
      "byteOffset": 786384,
      "componentType": 5126,
      "count": 65532,
      "max": [
        1.0,
        1.0,
        1.0
      ],
      "min": [
        -0.9999391436576843,
        -1.0,
        -1.0
      ],
      "type": "VEC3"
    },
    {
      "bufferView": 3,
      "componentType": 5126,
      "count": 65532,
      "max": [
        0.9999774098396301,
        0.9999777674674988,
        0.999984085559845,
        1.0
      ],
      "min": [
        -0.9999874830245972,
        -0.9999939799308777,
        -0.999968945980072,
        -1.0
      ],
      "type": "VEC4"
    },
    {
      "bufferView": 1,
      "componentType": 5126,
      "count": 65532,
      "max": [
        0.9995949864387512,
        0.9995959997177124
      ],
      "min": [
        0.00040499999886378646,
        0.0004039999912492931
      ],
      "type": "VEC2"
    },
    {
      "bufferView": 0,
      "componentType": 5125,
      "count": 290622,
      "type": "SCALAR"
    },
    {
      "bufferView": 2,
      "byteOffset": 1572768,
      "componentType": 5126,
      "count": 65532,
      "max": [
        0.29657500982284546,
        0.19956399500370026,
        0.5583990216255188
      ],
      "min": [
        -0.24980799853801727,
        -0.2575930058956146,
        -0.5565590262413025
      ],
      "type": "VEC3"
    },
    {
      "bufferView": 2,
      "byteOffset": 2359152,
      "componentType": 5126,
      "count": 65532,
      "max": [
        1.0,
        1.0,
        1.0
      ],
      "min": [
        -1.0,
        -1.0,
        -1.0
      ],
      "type": "VEC3"
    },
    {
      "bufferView": 3,
      "byteOffset": 1048512,
      "componentType": 5126,
      "count": 65532,
      "max": [
        1.0,
        0.9999889731407166,
        1.0,
        1.0
      ],
      "min": [
        -0.9999882578849792,
        -0.9999915957450867,
        -0.9999959468841553,
        -1.0
      ],
      "type": "VEC4"
    },
    {
      "bufferView": 1,
      "byteOffset": 524256,
      "componentType": 5126,
      "count": 65532,
      "max": [
        0.9995949864387512,
        0.9995959997177124
      ],
      "min": [
        0.00040499999886378646,
        0.0004039999912492931
      ],
      "type": "VEC2"
    },
    {
      "bufferView": 0,
      "byteOffset": 1162488,
      "componentType": 5125,
      "count": 307392,
      "type": "SCALAR"
    },
    {
      "bufferView": 2,
      "byteOffset": 3145536,
      "componentType": 5126,
      "count": 65532,
      "max": [
        0.23341700434684753,
        0.22407500445842743,
        0.20576199889183044
      ],
      "min": [
        -0.2918820083141327,
        -0.2710759937763214,
        -0.5579130053520203
      ],
      "type": "VEC3"
    },
    {
      "bufferView": 2,
      "byteOffset": 3931920,
      "componentType": 5126,
      "count": 65532,
      "max": [
        1.0,
        1.0,
        1.0
      ],
      "min": [
        -1.0,
        -0.9999982714653015,
        -1.0
      ],
      "type": "VEC3"
    },
    {
      "bufferView": 3,
      "byteOffset": 2097024,
      "componentType": 5126,
      "count": 65532,
      "max": [
        0.9999801516532898,
        0.9999793767929077,
        0.9999958872795105,
        1.0
      ],
      "min": [
        -0.9999812245368958,
        -0.9999738931655884,
        -0.9999876022338867,
        -1.0
      ],
      "type": "VEC4"
    },
    {
      "bufferView": 1,
      "byteOffset": 1048512,
      "componentType": 5126,
      "count": 65532,
      "max": [
        0.9995949864387512,
        0.9995959997177124
      ],
      "min": [
        0.00040499999886378646,
        0.0004039999912492931
      ],
      "type": "VEC2"
    },
    {
      "bufferView": 0,
      "byteOffset": 2392056,
      "componentType": 5125,
      "count": 284856,
      "type": "SCALAR"
    },
    {
      "bufferView": 2,
      "byteOffset": 4718304,
      "componentType": 5126,
      "count": 65532,
      "max": [
        0.15365000069141388,
        0.26403099298477173,
        0.560280978679657
      ],
      "min": [
        -0.29657500982284546,
        -0.23424099385738373,
        -0.556393027305603
      ],
      "type": "VEC3"
    },
    {
      "bufferView": 2,
      "byteOffset": 5504688,
      "componentType": 5126,
      "count": 65532,
      "max": [
        1.0,
        1.0,
        1.0
      ],
      "min": [
        -1.0,
        -1.0,
        -1.0
      ],
      "type": "VEC3"
    },
    {
      "bufferView": 3,
      "byteOffset": 3145536,
      "componentType": 5126,
      "count": 65532,
      "max": [
        1.0,
        1.0,
        0.999995231628418,
        1.0
      ],
      "min": [
        -0.9999914169311523,
        -0.9999905824661255,
        -0.9999938011169434,
        -1.0
      ],
      "type": "VEC4"
    },
    {
      "bufferView": 1,
      "byteOffset": 1572768,
      "componentType": 5126,
      "count": 65532,
      "max": [
        0.9995949864387512,
        0.9995959997177124
      ],
      "min": [
        0.00040499999886378646,
        0.0004039999912492931
      ],
      "type": "VEC2"
    },
    {
      "bufferView": 0,
      "byteOffset": 3531480,
      "componentType": 5125,
      "count": 261729,
      "type": "SCALAR"
    },
    {
      "bufferView": 2,
      "byteOffset": 6291072,
      "componentType": 5126,
      "count": 65532,
      "max": [
        0.188277006149292,
        0.2639259994029999,
        0.5683649778366089
      ],
      "min": [
        -0.2926509976387024,
        -0.20262500643730164,
        -0.556393027305603
      ],
      "type": "VEC3"
    },
    {
      "bufferView": 2,
      "byteOffset": 7077456,
      "componentType": 5126,
      "count": 65532,
      "max": [
        1.0,
        1.0,
        1.0
      ],
      "min": [
        -1.0,
        -1.0,
        -1.0
      ],
      "type": "VEC3"
    },
    {
      "bufferView": 3,
      "byteOffset": 4194048,
      "componentType": 5126,
      "count": 65532,
      "max": [
        0.9999728202819824,
        0.9999855160713196,
        0.9999708533287048,
        1.0
      ],
      "min": [
        -0.999941349029541,
        -0.9999947547912598,
        -0.9999708533287048,
        -1.0
      ],
      "type": "VEC4"
    },
    {
      "bufferView": 1,
      "byteOffset": 2097024,
      "componentType": 5126,
      "count": 65532,
      "max": [
        0.9995949864387512,
        0.9995959997177124
      ],
      "min": [
        0.00040499999886378646,
        0.0004039999912492931
      ],
      "type": "VEC2"
    },
    {
      "bufferView": 0,
      "byteOffset": 4578396,
      "componentType": 5125,
      "count": 289056,
      "type": "SCALAR"
    },
    {
      "bufferView": 2,
      "byteOffset": 7863840,
      "componentType": 5126,
      "count": 11208,
      "max": [
        0.07714100182056427,
        -0.06418199837207794,
        0.002234000014141202
      ],
      "min": [
        -0.23195800185203552,
        -0.20788000524044037,
        -0.5219550132751465
      ],
      "type": "VEC3"
    },
    {
      "bufferView": 2,
      "byteOffset": 7998336,
      "componentType": 5126,
      "count": 11208,
      "max": [
        1.0,
        0.9999509453773499,
        1.0
      ],
      "min": [
        -1.0,
        -0.999995231628418,
        -1.0
      ],
      "type": "VEC3"
    },
    {
      "bufferView": 3,
      "byteOffset": 5242560,
      "componentType": 5126,
      "count": 11208,
      "max": [
        0.9999532103538513,
        0.999740719795227,
        0.9997827410697937,
        1.0
      ],
      "min": [
        -0.9999374151229858,
        -0.9996873736381531,
        -0.9999352693557739,
        -1.0
      ],
      "type": "VEC4"
    },
    {
      "bufferView": 1,
      "byteOffset": 2621280,
      "componentType": 5126,
      "count": 11208,
      "max": [
        0.9995949864387512,
        0.9995959997177124
      ],
      "min": [
        0.00040499999886378646,
        0.0004039999912492931
      ],
      "type": "VEC2"
    },
    {
      "bufferView": 0,
      "byteOffset": 5734620,
      "componentType": 5125,
      "count": 39507,
      "type": "SCALAR"
    }
  ],
  "asset": {
    "extras": {
      "author": "LaffiTOO (https://sketchfab.com/lookssonya)",
      "license": "CC-BY-4.0 (http://creativecommons.org/licenses/by/4.0/)",
      "source": "https://sketchfab.com/3d-models/labubu-classic-collectible-3d-figure-2e5ba678496745f7ac466267d4a36548",
      "title": "Labubu: Classic - Collectible 3D Figure"
    },
    "generator": "Sketchfab-16.72.0",
    "version": "2.0"
  },
  "bufferViews": [
    {
      "buffer": 0,
      "byteLength": 5892648,
      "name": "floatBufferViews",
      "target": 34963
    },
    {
      "buffer": 0,
      "byteLength": 2710944,
      "byteOffset": 5892648,
      "byteStride": 8,
      "name": "floatBufferViews",
      "target": 34962
    },
    {
      "buffer": 0,
      "byteLength": 8132832,
      "byteOffset": 8603592,
      "byteStride": 12,
      "name": "floatBufferViews",
      "target": 34962
    },
    {
      "buffer": 0,
      "byteLength": 5421888,
      "byteOffset": 16736424,
      "byteStride": 16,
      "name": "floatBufferViews",
      "target": 34962
    }
  ],
  "buffers": [
    {
      "byteLength": 22158312,
      "uri": "scene.bin"
    }
  ],
  "images": [
    {
      "uri": "textures/Material_baseColor.png"
    },
    {
      "uri": "textures/Material_metallicRoughness.png"
    },
    {
      "uri": "textures/Material_normal.png"
    }
  ],
  "materials": [
    {
      "doubleSided": true,
      "name": "Material",
      "normalTexture": {
        "index": 2
      },
      "pbrMetallicRoughness": {
        "baseColorTexture": {
          "index": 0
        },
        "metallicRoughnessTexture": {
          "index": 1
        }
      }
    }
  ],
  "meshes": [
    {
      "name": "Object_0",
      "primitives": [
        {
          "attributes": {
            "NORMAL": 1,
            "POSITION": 0,
            "TANGENT": 2,
            "TEXCOORD_0": 3
          },
          "indices": 4,
          "material": 0,
          "mode": 4
        }
      ]
    },
    {
      "name": "Object_1",
      "primitives": [
        {
          "attributes": {
            "NORMAL": 6,
            "POSITION": 5,
            "TANGENT": 7,
            "TEXCOORD_0": 8
          },
          "indices": 9,
          "material": 0,
          "mode": 4
        }
      ]
    },
    {
      "name": "Object_2",
      "primitives": [
        {
          "attributes": {
            "NORMAL": 11,
            "POSITION": 10,
            "TANGENT": 12,
            "TEXCOORD_0": 13
          },
          "indices": 14,
          "material": 0,
          "mode": 4
        }
      ]
    },
    {
      "name": "Object_3",
      "primitives": [
        {
          "attributes": {
            "NORMAL": 16,
            "POSITION": 15,
            "TANGENT": 17,
            "TEXCOORD_0": 18
          },
          "indices": 19,
          "material": 0,
          "mode": 4
        }
      ]
    },
    {
      "name": "Object_4",
      "primitives": [
        {
          "attributes": {
            "NORMAL": 21,
            "POSITION": 20,
            "TANGENT": 22,
            "TEXCOORD_0": 23
          },
          "indices": 24,
          "material": 0,
          "mode": 4
        }
      ]
    },
    {
      "name": "Object_5",
      "primitives": [
        {
          "attributes": {
            "NORMAL": 26,
            "POSITION": 25,
            "TANGENT": 27,
            "TEXCOORD_0": 28
          },
          "indices": 29,
          "material": 0,
          "mode": 4
        }
      ]
    }
  ],
  "nodes": [
    {
      "children": [
        1
      ],
      "matrix": [
        1.0,
        0.0,
        0.0,
        0.0,
        0.0,
        2.220446049250313e-16,
        -1.0,
        0.0,
        0.0,
        1.0,
        2.220446049250313e-16,
        0.0,
        0.0,
        0.0,
        0.0,
        1.0
      ],
      "name": "Sketchfab_model"
    },
    {
      "children": [
        2,
        3,
        4,
        5,
        6,
        7
      ],
      "name": "d5aa142e4fca530a9b6a96aaa4e4e5a7.obj.cleaner.materialmerger.gles"
    },
    {
      "mesh": 0,
      "name": "Object_2"
    },
    {
      "mesh": 1,
      "name": "Object_3"
    },
    {
      "mesh": 2,
      "name": "Object_4"
    },
    {
      "mesh": 3,
      "name": "Object_5"
    },
    {
      "mesh": 4,
      "name": "Object_6"
    },
    {
      "mesh": 5,
      "name": "Object_7"
    }
  ],
  "samplers": [
    {
      "magFilter": 9729,
      "minFilter": 9987,
      "wrapS": 10497,
      "wrapT": 10497
    }
  ],
  "scene": 0,
  "scenes": [
    {
      "name": "Sketchfab_Scene",
      "nodes": [
        0
      ]
    }
  ],
  "textures": [
    {
      "sampler": 0,
      "source": 0
    },
    {
      "sampler": 0,
      "source": 1
    },
    {
      "sampler": 0,
      "source": 2
    }
  ]
}
